<?xml version="1.0" standalone="no"?>
<!DOCTYPE svg PUBLIC "-//W3C//DTD SVG 20010904//EN"
 "http://www.w3.org/TR/2001/REC-SVG-20010904/DTD/svg10.dtd">
<svg version="1.0" xmlns="http://www.w3.org/2000/svg"
 width="1902.000000pt" height="1902.000000pt" viewBox="0 0 1902.000000 1902.000000"
 preserveAspectRatio="xMidYMid meet">
<metadata>
Created by potrace 1.11, written by Peter Selinger 2001-2013
</metadata>
<g transform="translate(0.000000,1902.000000) scale(0.100000,-0.100000)"
fill="#000000" stroke="none">
<path d="M16651 18991 c-70 -47 -140 -119 -273 -283 -172 -210 -246 -278 -307
-280 -54 -2 -88 45 -116 163 -36 145 -68 177 -118 118 -29 -34 -29 -35 -23
-129 4 -52 9 -118 12 -147 3 -29 1 -67 -6 -87 -10 -33 -95 -150 -145 -202 -70
-73 -118 -149 -117 -185 0 -22 -29 -56 -167 -191 -324 -316 -504 -475 -675
-595 l-59 -41 -51 18 c-28 10 -76 24 -106 31 -104 24 -346 15 -452 -17 -10 -3
-30 -8 -45 -10 -46 -8 -253 -81 -333 -117 -95 -42 -129 -62 -197 -114 l-55
-42 -61 35 c-116 65 -427 221 -572 286 -33 14 -86 38 -117 52 -31 14 -59 26
-62 26 -4 0 -25 9 -49 19 -118 54 -531 205 -607 223 -8 1 -20 19 -25 38 -9 29
-16 35 -37 35 l-27 -1 33 41 c67 83 242 308 266 344 14 20 32 51 39 69 18 42
3 55 -49 47 -53 -9 -133 -68 -252 -186 -60 -58 -108 -103 -108 -101 0 4 41 96
103 232 37 82 41 117 12 145 -40 41 -100 9 -179 -96 -45 -59 -46 -60 -46 -30
0 70 -72 54 -141 -33 -23 -28 -61 -93 -86 -143 -25 -51 -50 -93 -55 -93 -6 0
-37 -18 -70 -40 l-59 -41 -147 30 c-81 17 -160 33 -177 35 -106 19 -145 26
-185 31 -25 3 -56 8 -70 10 -43 8 -83 13 -140 20 -30 3 -66 8 -80 10 -14 2
-50 7 -80 10 -30 3 -68 7 -85 9 -16 2 -73 7 -125 11 -52 4 -111 8 -130 10
-272 26 -924 20 -1215 -10 -22 -2 -71 -7 -110 -10 -38 -3 -81 -7 -95 -10 -14
-2 -54 -7 -90 -11 -36 -3 -73 -8 -82 -9 -9 -2 -45 -6 -79 -10 -35 -4 -66 -8
-69 -10 -3 -1 -25 -6 -50 -9 -25 -3 -56 -8 -70 -11 -13 -2 -42 -7 -65 -11 -84
-12 -385 -75 -520 -109 -155 -40 -157 -40 -200 -50 -39 -9 -205 -59 -325 -97
-957 -306 -1816 -769 -2601 -1404 -135 -109 -143 -115 -283 -239 -204 -180
-478 -453 -653 -650 -34 -39 -76 -86 -93 -105 -113 -127 -476 -595 -525 -678
-6 -9 -54 -82 -106 -162 -176 -266 -310 -497 -455 -785 -78 -154 -200 -418
-235 -509 -11 -28 -29 -70 -39 -93 -11 -24 -20 -47 -20 -53 0 -6 -4 -18 -9
-28 -29 -57 -124 -320 -170 -472 -18 -58 -39 -125 -46 -150 -30 -95 -45 -151
-89 -320 -25 -96 -52 -211 -61 -255 -9 -44 -19 -89 -21 -100 -7 -33 -52 -276
-59 -325 -4 -25 -9 -54 -11 -65 -5 -25 -31 -222 -39 -295 -4 -30 -8 -68 -10
-85 -30 -259 -40 -459 -39 -850 0 -323 4 -466 19 -632 23 -246 24 -263 46
-423 6 -47 13 -98 15 -115 2 -16 6 -41 8 -55 3 -14 8 -45 11 -70 4 -25 11 -67
16 -95 5 -27 12 -66 15 -85 3 -19 12 -66 21 -105 8 -38 26 -122 39 -185 14
-63 29 -128 34 -145 5 -16 23 -84 40 -150 57 -219 153 -520 243 -760 47 -125
169 -421 186 -452 6 -10 24 -49 42 -88 36 -81 182 -376 209 -420 9 -16 31 -55
47 -85 29 -54 122 -215 146 -254 120 -194 164 -263 245 -381 92 -136 331 -460
368 -500 11 -11 31 -36 46 -57 15 -20 33 -42 40 -50 7 -7 56 -63 108 -123 260
-303 612 -648 921 -904 68 -57 133 -111 144 -120 11 -9 47 -37 80 -61 33 -25
62 -47 65 -50 10 -10 189 -141 262 -191 199 -137 363 -241 598 -379 336 -198
849 -437 1250 -581 242 -88 722 -232 840 -253 14 -2 52 -11 85 -19 33 -9 96
-23 140 -32 100 -21 93 -20 195 -39 47 -8 99 -18 115 -21 17 -3 48 -8 70 -11
22 -3 63 -9 90 -14 28 -5 74 -12 104 -15 30 -4 61 -8 70 -10 9 -1 47 -6 84
-10 37 -3 76 -8 85 -10 10 -1 60 -6 112 -10 52 -4 103 -9 113 -11 131 -25
1064 -24 1237 1 14 2 66 6 115 10 50 3 97 8 105 10 8 2 47 6 85 10 39 3 77 8
85 10 8 2 38 6 65 10 88 10 139 17 160 21 11 2 63 11 115 20 52 8 140 24 195
35 55 11 110 21 123 24 13 2 31 6 40 9 9 3 28 7 42 10 14 2 44 9 66 15 23 6
62 15 85 20 24 5 71 17 104 26 33 9 69 18 80 21 11 2 43 10 70 19 28 8 106 31
175 51 69 20 132 40 141 45 9 4 27 10 40 13 13 3 60 18 104 34 44 16 109 39
145 52 36 12 76 27 90 33 14 5 30 11 35 13 57 15 467 195 647 285 70 34 131
59 135 55 10 -9 10 -364 1 -437 -4 -31 -12 -79 -19 -105 -6 -27 -13 -59 -15
-72 -3 -12 -13 -46 -23 -75 -28 -79 -59 -179 -65 -207 -3 -14 -8 -36 -11 -50
-5 -24 -7 -36 -22 -120 -3 -19 -7 -44 -9 -55 -6 -30 -14 -113 -18 -179 -2 -32
-9 -62 -15 -66 -7 -4 -35 1 -64 11 -115 39 -228 -22 -243 -132 -5 -39 -3 -49
20 -76 37 -44 75 -57 151 -51 l64 6 -4 -27 c-8 -44 -26 -174 -31 -220 -5 -45
-15 -61 -113 -181 l-45 -55 73 70 c44 42 71 62 67 50 -3 -11 -10 -49 -16 -85
-5 -36 -25 -134 -44 -219 -37 -171 -43 -255 -26 -354 20 -113 64 -148 188
-148 42 0 86 2 98 5 23 5 113 12 268 22 115 7 131 9 210 31 82 23 162 101 196
194 24 64 24 65 25 481 l0 418 29 0 c38 0 101 37 115 67 18 38 13 87 -12 124
-26 39 -90 79 -129 79 -28 0 -31 5 -43 74 l-7 40 -15 -32 c-9 -18 -20 -32 -25
-32 -5 0 -7 3 -5 8 3 4 8 39 11 77 14 146 16 161 21 195 3 19 7 58 11 85 3 28
9 77 14 110 5 33 12 83 15 110 3 28 8 61 10 75 3 14 7 43 11 65 9 65 11 77 49
305 14 85 30 174 36 198 5 23 12 59 15 78 3 20 7 44 9 53 7 38 36 173 55 261
11 52 23 109 26 125 5 24 22 41 87 84 75 49 375 268 387 281 3 3 50 42 105 85
138 110 132 106 284 240 246 216 586 563 786 800 37 44 77 91 89 105 133 156
326 417 485 655 427 642 745 1304 977 2039 58 184 145 506 160 592 2 16 9 43
14 59 4 17 12 48 16 70 4 22 8 45 9 50 14 62 38 194 55 295 12 69 23 136 25
150 3 14 7 50 11 80 3 30 8 63 9 72 2 9 7 48 10 85 4 37 8 75 10 83 2 8 7 51
10 95 4 44 9 96 11 115 13 123 19 342 19 660 0 314 -5 451 -20 630 -9 111 -16
180 -20 215 -2 22 -7 63 -10 90 -3 28 -8 64 -10 80 -10 71 -27 192 -31 218
-20 128 -34 208 -61 337 -14 69 -29 143 -34 166 -34 170 -194 743 -229 819 -5
11 -21 56 -36 100 -27 82 -160 425 -196 505 -269 598 -500 1004 -857 1505 -47
66 -88 122 -91 125 -3 3 -27 34 -55 70 -27 36 -52 67 -55 70 -10 10 -70 89
-70 93 0 2 11 17 26 33 22 26 54 86 54 103 0 3 -10 -10 -21 -29 -12 -19 -29
-40 -38 -47 -45 -36 -45 -36 -124 60 -73 88 -121 142 -189 215 l-31 33 22 45
c12 24 20 47 17 52 -2 4 18 46 45 92 96 166 136 285 143 435 4 76 4 82 -4 35
-26 -161 -62 -254 -154 -392 -57 -86 -62 -88 -80 -29 -23 77 -13 101 93 236
120 152 119 209 -5 342 -86 91 -102 127 -108 238 -3 50 -12 106 -20 126 -18
43 -64 84 -118 106 -21 8 -38 17 -38 20 0 2 32 48 72 101 39 53 97 133 129
177 32 44 62 85 66 90 198 254 214 272 343 408 97 101 138 133 153 118 24 -24
54 -8 137 72 215 209 415 300 710 323 104 7 203 31 241 57 37 25 72 96 58 118
-6 11 -37 14 -136 14 -115 -1 -297 -12 -347 -21 -35 -6 -7 8 91 48 54 21 112
45 128 52 17 8 71 31 120 51 187 76 256 122 271 180 7 29 -18 65 -46 65 -16 0
-126 -38 -175 -60 -28 -12 -335 -127 -362 -135 -30 -8 -29 0 4 44 56 76 125
126 323 234 30 16 62 36 71 43 8 8 20 14 25 14 18 0 73 65 77 90 6 35 -9 50
-50 50 -82 0 -212 -62 -478 -226 -84 -52 -157 -94 -161 -94 -4 0 4 12 18 28
80 84 298 458 298 511 0 26 -26 51 -53 51 -12 0 -42 -13 -66 -29z m-3747
-17592 l43 -11 -9 -41 c-5 -23 -12 -53 -14 -67 -8 -42 -27 -52 -102 -54 -79
-1 -112 17 -112 62 0 56 68 121 128 122 13 0 43 -5 66 -11z m901 -43 c62 -41
56 -112 -12 -136 -23 -8 -44 -12 -47 -9 -3 2 -8 38 -12 79 -3 41 -9 79 -12 84
-7 13 57 -1 83 -18z"/>
</g>
</svg>
