<?xml version="1.0" ?><svg enable-background="new 0 0 30 30" height="512" id="Layer_1" version="1.1" viewBox="0 0 512 512" width="512" xml:space="preserve" xmlns="http://www.w3.org/2000/svg" xmlns:cc="http://creativecommons.org/ns#" xmlns:dc="http://purl.org/dc/elements/1.1/" xmlns:inkscape="http://www.inkscape.org/namespaces/inkscape" xmlns:rdf="http://www.w3.org/1999/02/22-rdf-syntax-ns#" xmlns:sodipodi="http://sodipodi.sourceforge.net/DTD/sodipodi-0.dtd" xmlns:svg="http://www.w3.org/2000/svg"><defs id="defs15"/><path d="M 438.85958,-1.8548903e-6 H 73.14042 C 32.75148,-1.8548903e-6 0,32.760008 0,73.140418 V 438.85958 C 0,479.25705 32.75148,512 73.14042,512 H 438.85958 C 479.24852,512.009 512,479.26559 512,438.86811 V 73.140418 C 512,32.760008 479.24852,-1.8548903e-6 438.85958,-1.8548903e-6 z M 419.04485,157.71569 l -81.26429,0.26454 c 0,0 0,17.8691 0,43.93887 h 81.26429 v 81.25575 h -81.27282 c 0,62.22611 0,124.30714 0,124.32421 v 47.61679 H 256.49921 V 283.18339 H 202.64444 V 201.9191 h 53.85477 v -64.26561 c 0,-33.52802 27.42659,-60.954612 60.95461,-60.954612 h 101.59103 v 81.016812 z" id="path5"/></svg>